 <svg xmlns="http://www.w3.org/2000/svg" width="682.667" height="682.667" viewBox="0 0 512 512" preserveAspectRatio="xMidYMid meet" xmlns:v="https://vecta.io/nano"><path fill="#3866f2" d="M51.2 2C27.6 8.2 8 27.9 2 51.6c-2 7.6-2 11.9-2 204.3 0 218.7-.5 202.2 7 217.6 6.6 13.7 17.8 24.9 31.5 31.5 15.4 7.5-1.1 7 217.5 7s202.1.5 217.5-7c17.9-8.7 31.6-25.4 36.5-44.6 2-7.6 2-11.9 2-204.4l-2-204.4C503.9 27.7 484.3 8.1 460.4 2c-7.6-2-11.8-2-204.8-1.9L51.2 2zm102.3 96.7c19.9 6.2 33.2 27.2 29.8 47-3.2 18.6-17.7 33.2-36.2 36.4-17.7 3.2-36.4-6.8-44.8-23.9-3.7-7.4-3.8-7.9-3.8-18.7 0-10.6.1-11.3 3.4-18 9.7-19.7 31.1-29.1 51.6-22.8zM352 200c33.1 5.3 51.8 25.6 59.6 65 1.5 7.3 1.8 17.8 2.1 76.6l.4 68-2.7 2.7-2.7 2.7h-28.3-28.3l-2.8-2.4-2.8-2.4-.5-61.4c-.6-60-.6-61.4-2.8-68-6-17.8-18.2-26-36.4-24.5-15.5 1.3-25.5 10.3-31.6 28.5l-2.7 7.7-.5 58.6c-.6 64.3-.2 60.8-6.7 63.6-4 1.6-46.8 1.9-52.5.3-7.3-2.1-6.8 5.7-6.8-106.2V208.1l2.4-2.8 2.4-2.8 26.3-.3c35.2-.4 34.9-.6 34.9 16.8l.1 10.5 3.1-4c8.4-10.6 19.8-18.9 31.2-22.5 11.5-3.7 32.4-5 45.6-3zm-181.3 5.3l2.8 2.7.3 99.8c.2 97.5.2 99.8-1.7 102.9-3 4.9-6.9 5.5-33.5 5.1-20.5-.3-23.5-.5-26-2.1-5.8-3.8-5.6-.1-5.6-104.4l1.1-99.6c.7-2.5 2.1-4.5 4.2-5.8 3-1.8 4.8-1.9 29.4-1.7l26.3.3 2.7 2.8z"/></svg>